<svg width="24" height="24" viewBox="0 0 24 24" fill="none" xmlns="http://www.w3.org/2000/svg">
<g id="upwork_icon">
<path id="Vector" d="M17.9473 7.4921C15.7039 7.4921 14.0108 8.97358 13.3335 11.3016C12.2753 9.65083 11.4288 7.7884 10.9632 6.17993H8.5928V12.4022C8.5928 13.6297 7.57693 14.6455 6.34941 14.6455C5.1219 14.6455 4.10603 13.6297 4.10603 12.4022V6.22226H1.82031V12.4445C1.82031 15.0265 3.89439 17.1006 6.43407 17.1006C8.97375 17.1006 11.0478 15.0265 11.0478 12.4445V11.3863C11.5134 12.3175 12.106 13.3334 12.7409 14.2223L11.2595 21.1217H13.6722L14.688 16.0847C15.6193 16.6773 16.6775 17.0159 17.9473 17.0159C20.5293 17.0159 22.6457 14.8995 22.6457 12.1905C22.6457 9.6085 20.5293 7.4921 17.9473 7.4921ZM17.9473 14.6455C17.0161 14.6455 16.0425 14.2223 15.2806 13.5873L15.5346 12.6561V12.6138C15.7039 11.5979 16.2542 9.9048 17.9896 9.9048C19.3018 9.9048 20.36 10.963 20.36 12.2752C20.3177 13.5873 19.1748 14.6455 17.9473 14.6455Z" fill="#C4C4C4"/>
</g>
</svg>
