<svg width="24" height="24" viewBox="0 0 24 24" fill="none" xmlns="http://www.w3.org/2000/svg">
<path d="M17.9473 7.49186C15.7039 7.49186 14.0108 8.97334 13.3335 11.3014C12.2753 9.65059 11.4288 7.78815 10.9632 6.17969H8.5928V12.4019C8.5928 13.6294 7.57693 14.6453 6.34941 14.6453C5.1219 14.6453 4.10603 13.6294 4.10603 12.4019V6.22202H1.82031V12.4442C1.82031 15.0262 3.89439 17.1003 6.43407 17.1003C8.97375 17.1003 11.0478 15.0262 11.0478 12.4442V11.386C11.5134 12.3173 12.106 13.3331 12.7409 14.222L11.2595 21.1215H13.6722L14.688 16.0844C15.6193 16.677 16.6775 17.0157 17.9473 17.0157C20.5293 17.0157 22.6457 14.8993 22.6457 12.1903C22.6457 9.60826 20.5293 7.49186 17.9473 7.49186ZM17.9473 14.6453C17.0161 14.6453 16.0425 14.222 15.2806 13.5871L15.5346 12.6559V12.6135C15.7039 11.5977 16.2542 9.90455 17.9896 9.90455C19.3018 9.90455 20.36 10.9628 20.36 12.2749C20.3177 13.5871 19.1748 14.6453 17.9473 14.6453Z" fill="#1A1A1A"/>
</svg>
